<svg xmlns="http://www.w3.org/2000/svg" viewBox="0 0 3 2" width="300" height="200" role="img" aria-label="Syria (3 stars)">
  <rect width="3" height="0.6667" y="0" fill="#008000"/>
  <rect width="3" height="0.6667" y="0.6667" fill="#ffffff"/>
  <rect width="3" height="0.6667" y="1.3334" fill="#000000"/>
  <g fill="#CE1126">
    <polygon points="1.5,0.87 1.58,0.98 1.7,0.99 1.6,1.06 1.63,1.17 1.5,1.1 1.37,1.17 1.4,1.06 1.3,0.99 1.42,0.98"/>
    <polygon points="0.98,0.87 1.06,0.98 1.18,0.99 1.08,1.06 1.11,1.17 0.98,1.1 0.85,1.17 0.88,1.06 0.78,0.99 0.9,0.98"/>
    <polygon points="2.02,0.87 2.1,0.98 2.22,0.99 2.12,1.06 2.15,1.17 2.02,1.1 1.89,1.17 1.92,1.06 1.82,0.99 1.94,0.98"/>
  </g>
</svg>